<svg width="46.000000" height="53.000000" viewBox="0 0 46 53" fill="none" xmlns="http://www.w3.org/2000/svg" xmlns:xlink="http://www.w3.org/1999/xlink">
	<desc>
			Created with Pixso.
	</desc>
	<defs/>
	<path d="M45.41 8.71L45.41 14.39L41.4 14.39C36.94 14.39 32.56 13.18 28.73 10.89L23.66 7.83C23.37 7.65 23.03 7.56 22.69 7.56C22.34 7.56 22 7.65 21.71 7.83L16.66 10.88C12.83 13.17 8.45 14.37 3.99 14.37L0 14.37L0 8.71C-3.06e-5 8.2 0.19 7.72 0.55 7.37C0.9 7.01 1.38 6.81 1.88 6.8L4 6.8C8.81 6.8 13.52 5.49 17.63 3.01L22.7 0L27.75 3.03C31.87 5.5 36.58 6.81 41.38 6.82L43.52 6.82C44.02 6.83 44.49 7.03 44.85 7.38C45.2 7.73 45.4 8.21 45.41 8.71Z" fill="#FF3811" fill-opacity="1.000000" fill-rule="evenodd"/>
	<path d="M41.4 18.21C36.25 18.21 31.2 16.81 26.79 14.16L22.7 11.67L18.61 14.11C14.2 16.77 9.15 18.19 4 18.21L0 18.21L0 23.18C0.01 28.93 1.65 34.56 4.75 39.41C7.84 44.26 12.24 48.12 17.45 50.56L22.7 53L27.92 50.56C33.13 48.13 37.55 44.27 40.65 39.42C43.75 34.57 45.4 28.94 45.41 23.18L45.41 18.21L41.4 18.21ZM23.66 34.78C23.31 35.11 22.84 35.3 22.35 35.3C21.87 35.3 21.4 35.11 21.05 34.78L15.75 29.48L18.41 26.81L22.39 30.77L29.01 24.14L31.68 26.81L23.66 34.78Z" fill="#444444" fill-opacity="1.000000" fill-rule="evenodd"/>
</svg>
