<svg width="67.000000" height="54.000000" viewBox="0 0 67 54" fill="none" xmlns="http://www.w3.org/2000/svg" xmlns:xlink="http://www.w3.org/1999/xlink">
	<desc>
			Created with Pixso.
	</desc>
	<defs/>
	<path d="M45.3 53L45.3 28.4L66.59 16.1L66.59 39.76C66.59 40.36 66.29 40.88 65.77 41.18L45.3 53ZM19.69 40.77L2.51 40.77C1.12 40.77 0 39.64 0 38.25C0 36.86 1.12 35.73 2.51 35.73L19.6 35.73C22.56 35.73 22.56 31.01 19.6 31.01L9.33 31.01C7.94 31.01 6.81 29.88 6.81 28.49C6.81 27.1 7.94 25.97 9.33 25.97L17.36 25.97C20.32 25.97 20.32 21.25 17.36 21.25L2.51 21.25C1.12 21.25 0 20.13 0 18.74C0 17.34 1.12 16.22 2.51 16.22L19.77 16.22L40.87 28.4L40.87 53L19.69 40.77ZM21.78 12.27L43.08 24.57L64.39 12.27L43.12 0L29.17 0C27.78 0 26.65 1.12 26.65 2.51C26.65 3.91 27.78 5.03 29.17 5.03L32.12 5.03C32.39 5.03 32.62 5.21 32.69 5.47C32.76 5.73 32.65 6 32.41 6.13L21.78 12.27ZM20.57 0C21.96 0 23.09 1.12 23.09 2.51C23.09 3.91 21.96 5.03 20.57 5.03L5.25 5.03C3.86 5.03 2.73 3.91 2.73 2.51C2.73 1.12 3.86 0 5.25 0L20.57 0Z" fill="#444444" fill-opacity="1.000000" fill-rule="evenodd"/>
	<path d="M45 28.5L67 15.5L67 40C67 40.33 66.8 41.1 66 41.5C65.19 41.89 51.66 49.66 45 53.5L45 28.5Z" fill="#FF3811" fill-opacity="1.000000" fill-rule="evenodd"/>
</svg>
