<svg width="43.000000" height="53.000000" viewBox="0 0 43 53" fill="none" xmlns="http://www.w3.org/2000/svg" xmlns:xlink="http://www.w3.org/1999/xlink">
	<desc>
			Created with Pixso.
	</desc>
	<defs/>
	<path d="M11.17 23.61C13.59 28.96 18.79 31.29 21.37 31.29C23.06 31.29 25.89 30.29 28.32 28.07C27.43 28.13 26.48 28.17 25.47 28.17C25.23 28.17 24.98 28.16 24.71 28.16C24.2 28.55 23.57 28.78 22.91 28.78L20.75 28.78C19.13 28.78 17.8 27.45 17.8 25.82C17.8 24.2 19.13 22.87 20.75 22.87L22.91 22.87C23.69 22.87 24.42 23.18 24.96 23.7C25.14 23.7 25.32 23.7 25.5 23.7C28.28 23.7 30.12 23.45 31.32 23.14C31.17 22.76 31.08 22.34 31.08 21.91L31.08 14.43C31.08 13.65 31.37 12.9 31.87 12.32C31.61 10.25 31.12 8.66 30.4 7.49C28.91 5.09 26.04 3.96 21.37 3.96C17.49 3.96 14.81 4.77 13.18 6.42C11.92 7.71 11.19 9.54 10.85 12.3C11.36 12.88 11.65 13.64 11.65 14.43L11.65 21.91C11.65 22.53 11.47 23.11 11.17 23.61Z" fill="#FF3811" fill-opacity="1.000000" fill-rule="nonzero"/>
	<path d="M5.85 23.68L8.45 23.68C9.42 23.68 10.21 22.89 10.21 21.91L10.21 14.43C10.21 13.77 9.86 13.21 9.33 12.9C9.91 6.77 12.28 2.52 21.37 2.52C26.59 2.52 29.85 3.86 31.62 6.74C32.66 8.41 33.16 10.57 33.39 12.91C32.87 13.22 32.52 13.78 32.52 14.43L32.52 21.91C32.52 22.75 33.11 23.45 33.9 23.63C32.76 24.38 30.39 25.14 25.5 25.14C25.1 25.14 24.69 25.14 24.26 25.13C24 24.64 23.5 24.31 22.91 24.31L20.75 24.31C19.92 24.31 19.24 24.99 19.24 25.82C19.24 26.66 19.92 27.34 20.75 27.34L22.91 27.34C23.42 27.34 23.86 27.09 24.14 26.71C24.59 26.72 25.04 26.73 25.47 26.73C30.99 26.73 34.5 25.78 35.92 23.91C35.98 23.84 36.03 23.76 36.08 23.68L36.88 23.68C37.86 23.68 38.65 22.89 38.65 21.91L38.65 14.43C38.65 13.45 37.86 12.66 36.88 12.66L35.91 12.66C35.63 9.83 35.03 7.43 33.78 5.41C31.52 1.77 27.47 0 21.37 0C15.27 0 11.21 1.77 8.96 5.41C7.71 7.43 7.1 9.83 6.83 12.66L5.85 12.66C4.88 12.66 4.09 13.45 4.09 14.43L4.09 21.91C4.09 22.89 4.88 23.68 5.85 23.68Z" fill="#444444" fill-opacity="1.000000" fill-rule="nonzero"/>
	<path d="M42.73 45.69C42.14 42.04 40.93 37.33 38.51 35.66C36.85 34.52 31.08 31.43 28.61 30.11L28.56 30.09C28.28 29.94 27.94 29.97 27.68 30.16C26.39 31.18 24.97 31.86 23.47 32.2C23.21 32.26 22.99 32.44 22.9 32.7L21.37 36.72L19.84 32.7C19.74 32.44 19.53 32.26 19.26 32.2C17.76 31.86 16.35 31.18 15.05 30.16C14.8 29.97 14.46 29.94 14.17 30.09C11.74 31.39 5.89 34.54 4.23 35.65C1.44 37.53 0.22 44.34 0.01 45.69C-0.02 45.82 0 45.96 0.04 46.09C0.14 46.37 2.7 53 21.37 53C40.03 53 42.59 46.37 42.69 46.09C42.74 45.96 42.75 45.82 42.73 45.69ZM34.04 41.49L26.65 41.49L26.65 39.94L34.04 39.94L34.04 41.49Z" fill="#444444" fill-opacity="1.000000" fill-rule="nonzero"/>
</svg>
