<svg width="76.000000" height="54.000000" viewBox="0 0 76 54" fill="none" xmlns="http://www.w3.org/2000/svg" xmlns:xlink="http://www.w3.org/1999/xlink">
	<desc>
			Created with Pixso.
	</desc>
	<defs/>
	<path d="M37.81 29.79C29.87 29.79 23.41 36.25 23.41 44.19L23.41 53.06L52.21 53.06L52.21 44.19C52.21 36.25 45.75 29.79 37.81 29.79Z" fill="#FF3811" fill-opacity="1.000000" fill-rule="nonzero"/>
	<path d="M47.78 19.82C47.78 14.32 43.31 9.85 37.81 9.85C32.31 9.85 27.84 14.32 27.84 19.82C27.84 25.32 32.31 29.79 37.81 29.79C43.31 29.79 47.78 25.32 47.78 19.82Z" fill="#FF3811" fill-opacity="1.000000" fill-rule="nonzero"/>
	<path d="M24.52 9.85C24.52 4.35 20.04 -0.12 14.55 -0.12C9.05 -0.12 4.57 4.35 4.57 9.85C4.57 15.35 9.05 19.82 14.55 19.82C20.04 19.82 24.52 15.35 24.52 9.85Z" fill="#444444" fill-opacity="1.000000" fill-rule="nonzero"/>
	<path d="M61.08 19.82C55.22 19.82 50.2 23.34 47.95 28.37C53.16 31.72 56.65 37.55 56.65 44.19L75.63 44.19L75.63 34.22C75.63 26.28 69.02 19.82 61.08 19.82Z" fill="#444444" fill-opacity="1.000000" fill-rule="nonzero"/>
	<path d="M71.05 9.85C71.05 4.35 66.58 -0.12 61.08 -0.12C55.58 -0.12 51.11 4.35 51.11 9.85C51.11 15.35 55.58 19.82 61.08 19.82C66.58 19.82 71.05 15.35 71.05 9.85Z" fill="#444444" fill-opacity="1.000000" fill-rule="nonzero"/>
	<path d="M27.68 28.37C25.43 23.34 20.4 19.82 14.55 19.82C6.6 19.82 0 26.28 0 34.22L0 44.19L18.98 44.19C18.98 37.55 22.46 31.72 27.68 28.37Z" fill="#444444" fill-opacity="1.000000" fill-rule="nonzero"/>
</svg>
